<?xml version="1.0" encoding="utf-8"?>
<svg xmlns="http://www.w3.org/2000/svg"
     xmlns:xlink="http://www.w3.org/1999/xlink" width="800" height="1200" >

        <defs>
        <style type="text/css"><![CDATA[
circle {fill:none; stroke-width: 2px; stroke: #000;}
circle.centre-circ {fill:#000;}
line {stroke-width: 2px; stroke: #000;}
text {dominant-baseline: middle; text-anchor:middle;      font-family:Arial,Helvetica;font-size: 20pt;      font-weight: bold;}
text.min-labels {font-size: 14pt; font-weight: normal;}
line.mn-hand {stroke-width: 4px; stroke: #f00;}
line.hr-hand {stroke-width: 12px; stroke: #000;}
]]></style>
    </defs>
<line x1="200" y1="200" x2="274.94262791219217" y2="283.23222045346813" class="mn-hand"/>
<line x1="200" y1="200" x2="253.009603857259" y2="140.08354233687982" class="hr-hand"/>
<circle cx="200" cy="200" r="160.0"/>
<text x="260.0" y="96.07695154586737">1</text>
<text x="290.0" y="44.11542731880104" class="min-labels">5</text>
<line x1="270.0" y1="78.7564434701786" x2="280.0" y2="61.43593539448983"/>
<line x1="288.167787843871" y1="78.6474508437579" x2="294.04564036679574" y2="70.55728090000844"/>
<line x1="300.3695909538287" y1="88.52827617839088" x2="307.06089701741735" y2="81.09682792361694"/>
<line x1="311.47172382160915" y1="99.63040904617128" x2="318.90317207638304" y2="92.9391029825827"/>
<line x1="321.3525491562421" y1="111.83221215612903" x2="329.44271909999156" y2="105.95435963320429"/>
<text x="303.92304845413264" y="140.0">2</text>
<text x="355.88457268119896" y="110.00000000000001" class="min-labels">10</text>
<line x1="321.24355652982143" y1="130.0" x2="338.5640646055102" y2="120.00000000000001"/>
<line x1="337.03181864639015" y1="138.98950353862998" x2="346.16727322281616" y2="134.92213710787198"/>
<line x1="342.658477444273" y1="153.6474508437579" x2="352.1690426072246" y2="150.5572809000084"/>
<line x1="346.7221401100709" y1="168.8132463773361" x2="356.5036161174089" y2="166.73412946915852"/>
<line x1="349.178284305241" y1="184.32073050985198" x2="359.12350325892373" y2="183.27544587717546"/>
<text x="320.0" y="200.0">3</text>
<text x="380.0" y="200.0" class="min-labels">15</text>
<line x1="340.0" y1="200.0" x2="360.0" y2="200.0"/>
<line x1="349.178284305241" y1="215.67926949014802" x2="359.12350325892373" y2="216.72455412282454"/>
<line x1="346.7221401100708" y1="231.1867536226639" x2="356.5036161174089" y2="233.2658705308415"/>
<line x1="342.658477444273" y1="246.3525491562421" x2="352.1690426072246" y2="249.4427190999916"/>
<line x1="337.03181864639015" y1="261.01049646137005" x2="346.16727322281616" y2="265.077862892128"/>
<text x="303.92304845413264" y="260.0">4</text>
<text x="355.88457268119896" y="290.0" class="min-labels">20</text>
<line x1="321.2435565298214" y1="270.0" x2="338.56406460551017" y2="280.0"/>
<line x1="321.3525491562421" y1="288.167787843871" x2="329.44271909999156" y2="294.04564036679574"/>
<line x1="311.47172382160915" y1="300.3695909538287" x2="318.90317207638304" y2="307.0608970174173"/>
<line x1="300.3695909538287" y1="311.47172382160915" x2="307.06089701741735" y2="318.90317207638304"/>
<line x1="288.167787843871" y1="321.3525491562421" x2="294.04564036679574" y2="329.44271909999156"/>
<text x="260.0" y="303.92304845413264">5</text>
<text x="290.0" y="355.88457268119896" class="min-labels">25</text>
<line x1="270.0" y1="321.2435565298214" x2="280.0" y2="338.56406460551017"/>
<line x1="261.01049646137005" y1="337.0318186463901" x2="265.077862892128" y2="346.1672732228161"/>
<line x1="246.35254915624216" y1="342.658477444273" x2="249.44271909999162" y2="352.1690426072246"/>
<line x1="231.18675362266393" y1="346.7221401100708" x2="233.2658705308415" y2="356.5036161174089"/>
<line x1="215.67926949014802" y1="349.178284305241" x2="216.72455412282454" y2="359.12350325892373"/>
<text x="200.00000000000003" y="320.0">6</text>
<text x="200.00000000000006" y="380.0" class="min-labels">30</text>
<line x1="200.00000000000003" y1="340.0" x2="200.00000000000006" y2="360.0"/>
<line x1="184.320730509852" y1="349.17828430524105" x2="183.27544587717546" y2="359.12350325892373"/>
<line x1="168.8132463773361" y1="346.7221401100709" x2="166.73412946915852" y2="356.5036161174089"/>
<line x1="153.64745084375792" y1="342.65847744427305" x2="150.55728090000844" y2="352.1690426072246"/>
<line x1="138.98950353862998" y1="337.03181864639015" x2="134.922137107872" y2="346.16727322281616"/>
<text x="140.0" y="303.92304845413264">7</text>
<text x="109.99999999999999" y="355.88457268119896" class="min-labels">35</text>
<line x1="130.0" y1="321.2435565298214" x2="119.99999999999999" y2="338.56406460551017"/>
<line x1="111.83221215612905" y1="321.3525491562421" x2="105.95435963320432" y2="329.44271909999156"/>
<line x1="99.63040904617131" y1="311.4717238216092" x2="92.93910298258274" y2="318.9031720763831"/>
<line x1="88.52827617839084" y1="300.3695909538287" x2="81.0968279236169" y2="307.0608970174173"/>
<line x1="78.6474508437579" y1="288.167787843871" x2="70.55728090000844" y2="294.04564036679574"/>
<text x="96.07695154586739" y="260.00000000000006">8</text>
<text x="44.11542731880107" y="290.00000000000006" class="min-labels">40</text>
<line x1="78.75644347017861" y1="270.00000000000006" x2="61.43593539448983" y2="280.00000000000006"/>
<line x1="62.96818135360985" y1="261.01049646137" x2="53.83272677718384" y2="265.077862892128"/>
<line x1="57.34152255572698" y1="246.35254915624213" x2="47.830957392775446" y2="249.4427190999916"/>
<line x1="53.277859889929175" y1="231.18675362266396" x2="43.49638388259112" y2="233.26587053084154"/>
<line x1="50.82171569475898" y1="215.679269490148" x2="40.87649674107627" y2="216.72455412282454"/>
<text x="80.0" y="200.00000000000003">9</text>
<text x="20.0" y="200.00000000000003" class="min-labels">45</text>
<line x1="60.0" y1="200.00000000000003" x2="40.0" y2="200.00000000000003"/>
<line x1="50.82171569475898" y1="184.32073050985204" x2="40.87649674107627" y2="183.2754458771755"/>
<line x1="53.277859889929175" y1="168.81324637733607" x2="43.49638388259112" y2="166.73412946915846"/>
<line x1="57.341522555726954" y1="153.6474508437579" x2="47.83095739277542" y2="150.55728090000844"/>
<line x1="62.96818135360985" y1="138.98950353863003" x2="53.83272677718384" y2="134.92213710787203"/>
<text x="96.07695154586737" y="140.0">10</text>
<text x="44.11542731880104" y="109.99999999999999" class="min-labels">50</text>
<line x1="78.7564434701786" y1="130.0" x2="61.43593539448983" y2="119.99999999999999"/>
<line x1="78.64745084375788" y1="111.83221215612905" x2="70.55728090000841" y2="105.95435963320432"/>
<line x1="88.52827617839083" y1="99.63040904617131" x2="81.09682792361689" y2="92.93910298258274"/>
<line x1="99.63040904617128" y1="88.52827617839087" x2="92.9391029825827" y2="81.09682792361693"/>
<line x1="111.83221215612902" y1="78.6474508437579" x2="105.95435963320428" y2="70.55728090000844"/>
<text x="139.99999999999994" y="96.07695154586739">11</text>
<text x="109.99999999999991" y="44.115427318801096" class="min-labels">55</text>
<line x1="129.99999999999994" y1="78.75644347017862" x2="119.99999999999993" y2="61.43593539448986"/>
<line x1="138.98950353862998" y1="62.96818135360985" x2="134.922137107872" y2="53.83272677718384"/>
<line x1="153.64745084375787" y1="57.34152255572698" x2="150.55728090000838" y2="47.830957392775446"/>
<line x1="168.81324637733604" y1="53.277859889929175" x2="166.73412946915843" y2="43.49638388259112"/>
<line x1="184.320730509852" y1="50.82171569475898" x2="183.27544587717546" y2="40.87649674107627"/>
<text x="199.99999999999997" y="80.0">12</text>
<text x="199.99999999999997" y="20.0" class="min-labels">0</text>
<line x1="199.99999999999997" y1="60.0" x2="199.99999999999997" y2="40.0"/>
<line x1="215.67926949014796" y1="50.82171569475898" x2="216.7245541228245" y2="40.87649674107627"/>
<line x1="231.1867536226639" y1="53.277859889929175" x2="233.2658705308415" y2="43.49638388259112"/>
<line x1="246.35254915624208" y1="57.341522555726954" x2="249.44271909999156" y2="47.83095739277542"/>
<line x1="261.01049646136994" y1="62.96818135360985" x2="265.077862892128" y2="53.83272677718384"/>
<circle cx="200" cy="200" r="10" class="centre-circ"/>
<line x1="600" y1="200" x2="683.2322204534682" y2="274.9426279121921" class="mn-hand"/>
<line x1="600" y1="200" x2="573.9545476434274" y2="124.35851395205468" class="hr-hand"/>
<circle cx="600" cy="200" r="160.0"/>
<text x="660.0" y="96.07695154586737">1</text>
<text x="690.0" y="44.11542731880104" class="min-labels">5</text>
<line x1="670.0" y1="78.7564434701786" x2="680.0" y2="61.43593539448983"/>
<line x1="688.167787843871" y1="78.6474508437579" x2="694.0456403667957" y2="70.55728090000844"/>
<line x1="700.3695909538287" y1="88.52827617839088" x2="707.0608970174173" y2="81.09682792361694"/>
<line x1="711.4717238216091" y1="99.63040904617128" x2="718.903172076383" y2="92.9391029825827"/>
<line x1="721.3525491562422" y1="111.83221215612903" x2="729.4427190999916" y2="105.95435963320429"/>
<text x="703.9230484541326" y="140.0">2</text>
<text x="755.884572681199" y="110.00000000000001" class="min-labels">10</text>
<line x1="721.2435565298214" y1="130.0" x2="738.5640646055102" y2="120.00000000000001"/>
<line x1="737.0318186463901" y1="138.98950353862998" x2="746.1672732228162" y2="134.92213710787198"/>
<line x1="742.658477444273" y1="153.6474508437579" x2="752.1690426072246" y2="150.5572809000084"/>
<line x1="746.7221401100709" y1="168.8132463773361" x2="756.5036161174089" y2="166.73412946915852"/>
<line x1="749.178284305241" y1="184.32073050985198" x2="759.1235032589237" y2="183.27544587717546"/>
<text x="720.0" y="200.0">3</text>
<text x="780.0" y="200.0" class="min-labels">15</text>
<line x1="740.0" y1="200.0" x2="760.0" y2="200.0"/>
<line x1="749.178284305241" y1="215.67926949014802" x2="759.1235032589237" y2="216.72455412282454"/>
<line x1="746.7221401100708" y1="231.1867536226639" x2="756.5036161174089" y2="233.2658705308415"/>
<line x1="742.658477444273" y1="246.3525491562421" x2="752.1690426072246" y2="249.4427190999916"/>
<line x1="737.0318186463901" y1="261.01049646137005" x2="746.1672732228162" y2="265.077862892128"/>
<text x="703.9230484541326" y="260.0">4</text>
<text x="755.884572681199" y="290.0" class="min-labels">20</text>
<line x1="721.2435565298214" y1="270.0" x2="738.5640646055101" y2="280.0"/>
<line x1="721.3525491562422" y1="288.167787843871" x2="729.4427190999916" y2="294.04564036679574"/>
<line x1="711.4717238216091" y1="300.3695909538287" x2="718.903172076383" y2="307.0608970174173"/>
<line x1="700.3695909538287" y1="311.47172382160915" x2="707.0608970174173" y2="318.90317207638304"/>
<line x1="688.167787843871" y1="321.3525491562421" x2="694.0456403667957" y2="329.44271909999156"/>
<text x="660.0" y="303.92304845413264">5</text>
<text x="690.0" y="355.88457268119896" class="min-labels">25</text>
<line x1="670.0" y1="321.2435565298214" x2="680.0" y2="338.56406460551017"/>
<line x1="661.01049646137" y1="337.0318186463901" x2="665.077862892128" y2="346.1672732228161"/>
<line x1="646.3525491562422" y1="342.658477444273" x2="649.4427190999917" y2="352.1690426072246"/>
<line x1="631.1867536226639" y1="346.7221401100708" x2="633.2658705308415" y2="356.5036161174089"/>
<line x1="615.679269490148" y1="349.178284305241" x2="616.7245541228245" y2="359.12350325892373"/>
<text x="600.0" y="320.0">6</text>
<text x="600.0" y="380.0" class="min-labels">30</text>
<line x1="600.0" y1="340.0" x2="600.0" y2="360.0"/>
<line x1="584.320730509852" y1="349.17828430524105" x2="583.2754458771755" y2="359.12350325892373"/>
<line x1="568.8132463773361" y1="346.7221401100709" x2="566.7341294691585" y2="356.5036161174089"/>
<line x1="553.647450843758" y1="342.65847744427305" x2="550.5572809000084" y2="352.1690426072246"/>
<line x1="538.98950353863" y1="337.03181864639015" x2="534.922137107872" y2="346.16727322281616"/>
<text x="540.0" y="303.92304845413264">7</text>
<text x="510.0" y="355.88457268119896" class="min-labels">35</text>
<line x1="530.0" y1="321.2435565298214" x2="520.0" y2="338.56406460551017"/>
<line x1="511.83221215612906" y1="321.3525491562421" x2="505.9543596332043" y2="329.44271909999156"/>
<line x1="499.6304090461713" y1="311.4717238216092" x2="492.93910298258277" y2="318.9031720763831"/>
<line x1="488.52827617839085" y1="300.3695909538287" x2="481.0968279236169" y2="307.0608970174173"/>
<line x1="478.6474508437579" y1="288.167787843871" x2="470.55728090000844" y2="294.04564036679574"/>
<text x="496.07695154586736" y="260.00000000000006">8</text>
<text x="444.11542731880104" y="290.00000000000006" class="min-labels">40</text>
<line x1="478.7564434701786" y1="270.00000000000006" x2="461.43593539448983" y2="280.00000000000006"/>
<line x1="462.96818135360985" y1="261.01049646137" x2="453.83272677718384" y2="265.077862892128"/>
<line x1="457.341522555727" y1="246.35254915624213" x2="447.8309573927754" y2="249.4427190999916"/>
<line x1="453.2778598899292" y1="231.18675362266396" x2="443.4963838825911" y2="233.26587053084154"/>
<line x1="450.82171569475895" y1="215.679269490148" x2="440.87649674107627" y2="216.72455412282454"/>
<text x="480.0" y="200.00000000000003">9</text>
<text x="420.0" y="200.00000000000003" class="min-labels">45</text>
<line x1="460.0" y1="200.00000000000003" x2="440.0" y2="200.00000000000003"/>
<line x1="450.82171569475895" y1="184.32073050985204" x2="440.87649674107627" y2="183.2754458771755"/>
<line x1="453.2778598899292" y1="168.81324637733607" x2="443.4963838825911" y2="166.73412946915846"/>
<line x1="457.34152255572695" y1="153.6474508437579" x2="447.8309573927754" y2="150.55728090000844"/>
<line x1="462.96818135360985" y1="138.98950353863003" x2="453.83272677718384" y2="134.92213710787203"/>
<text x="496.07695154586736" y="140.0">10</text>
<text x="444.11542731880104" y="109.99999999999999" class="min-labels">50</text>
<line x1="478.7564434701786" y1="130.0" x2="461.43593539448983" y2="119.99999999999999"/>
<line x1="478.6474508437579" y1="111.83221215612905" x2="470.55728090000844" y2="105.95435963320432"/>
<line x1="488.5282761783908" y1="99.63040904617131" x2="481.0968279236169" y2="92.93910298258274"/>
<line x1="499.6304090461713" y1="88.52827617839087" x2="492.9391029825827" y2="81.09682792361693"/>
<line x1="511.832212156129" y1="78.6474508437579" x2="505.95435963320426" y2="70.55728090000844"/>
<text x="540.0" y="96.07695154586739">11</text>
<text x="509.9999999999999" y="44.115427318801096" class="min-labels">55</text>
<line x1="530.0" y1="78.75644347017862" x2="519.9999999999999" y2="61.43593539448986"/>
<line x1="538.98950353863" y1="62.96818135360985" x2="534.922137107872" y2="53.83272677718384"/>
<line x1="553.6474508437578" y1="57.34152255572698" x2="550.5572809000084" y2="47.830957392775446"/>
<line x1="568.813246377336" y1="53.277859889929175" x2="566.7341294691585" y2="43.49638388259112"/>
<line x1="584.320730509852" y1="50.82171569475898" x2="583.2754458771755" y2="40.87649674107627"/>
<text x="600.0" y="80.0">12</text>
<text x="600.0" y="20.0" class="min-labels">0</text>
<line x1="600.0" y1="60.0" x2="600.0" y2="40.0"/>
<line x1="615.6792694901479" y1="50.82171569475898" x2="616.7245541228244" y2="40.87649674107627"/>
<line x1="631.1867536226639" y1="53.277859889929175" x2="633.2658705308415" y2="43.49638388259112"/>
<line x1="646.352549156242" y1="57.341522555726954" x2="649.4427190999916" y2="47.83095739277542"/>
<line x1="661.0104964613699" y1="62.96818135360985" x2="665.077862892128" y2="53.83272677718384"/>
<circle cx="600" cy="200" r="10" class="centre-circ"/>
<line x1="200" y1="600" x2="311.3864522812466" y2="611.7071878859772" class="mn-hand"/>
<line x1="200" y1="600" x2="125.82529163465702" y2="629.968527473273" class="hr-hand"/>
<circle cx="200" cy="600" r="160.0"/>
<text x="260.0" y="496.07695154586736">1</text>
<text x="290.0" y="444.11542731880104" class="min-labels">5</text>
<line x1="270.0" y1="478.7564434701786" x2="280.0" y2="461.43593539448983"/>
<line x1="288.167787843871" y1="478.6474508437579" x2="294.04564036679574" y2="470.55728090000844"/>
<line x1="300.3695909538287" y1="488.5282761783909" x2="307.06089701741735" y2="481.09682792361696"/>
<line x1="311.47172382160915" y1="499.6304090461713" x2="318.90317207638304" y2="492.9391029825827"/>
<line x1="321.3525491562421" y1="511.832212156129" x2="329.44271909999156" y2="505.95435963320426"/>
<text x="303.92304845413264" y="540.0">2</text>
<text x="355.88457268119896" y="510.0" class="min-labels">10</text>
<line x1="321.24355652982143" y1="530.0" x2="338.5640646055102" y2="520.0"/>
<line x1="337.03181864639015" y1="538.98950353863" x2="346.16727322281616" y2="534.922137107872"/>
<line x1="342.658477444273" y1="553.6474508437578" x2="352.1690426072246" y2="550.5572809000084"/>
<line x1="346.7221401100709" y1="568.8132463773361" x2="356.5036161174089" y2="566.7341294691585"/>
<line x1="349.178284305241" y1="584.320730509852" x2="359.12350325892373" y2="583.2754458771755"/>
<text x="320.0" y="600.0">3</text>
<text x="380.0" y="600.0" class="min-labels">15</text>
<line x1="340.0" y1="600.0" x2="360.0" y2="600.0"/>
<line x1="349.178284305241" y1="615.679269490148" x2="359.12350325892373" y2="616.7245541228245"/>
<line x1="346.7221401100708" y1="631.1867536226639" x2="356.5036161174089" y2="633.2658705308415"/>
<line x1="342.658477444273" y1="646.3525491562422" x2="352.1690426072246" y2="649.4427190999916"/>
<line x1="337.03181864639015" y1="661.01049646137" x2="346.16727322281616" y2="665.077862892128"/>
<text x="303.92304845413264" y="660.0">4</text>
<text x="355.88457268119896" y="690.0" class="min-labels">20</text>
<line x1="321.2435565298214" y1="670.0" x2="338.56406460551017" y2="680.0"/>
<line x1="321.3525491562421" y1="688.167787843871" x2="329.44271909999156" y2="694.0456403667957"/>
<line x1="311.47172382160915" y1="700.3695909538287" x2="318.90317207638304" y2="707.0608970174173"/>
<line x1="300.3695909538287" y1="711.4717238216091" x2="307.06089701741735" y2="718.903172076383"/>
<line x1="288.167787843871" y1="721.352549156242" x2="294.04564036679574" y2="729.4427190999916"/>
<text x="260.0" y="703.9230484541326">5</text>
<text x="290.0" y="755.884572681199" class="min-labels">25</text>
<line x1="270.0" y1="721.2435565298214" x2="280.0" y2="738.5640646055101"/>
<line x1="261.01049646137005" y1="737.0318186463901" x2="265.077862892128" y2="746.1672732228161"/>
<line x1="246.35254915624216" y1="742.658477444273" x2="249.44271909999162" y2="752.1690426072246"/>
<line x1="231.18675362266393" y1="746.7221401100708" x2="233.2658705308415" y2="756.5036161174089"/>
<line x1="215.67926949014802" y1="749.178284305241" x2="216.72455412282454" y2="759.1235032589237"/>
<text x="200.00000000000003" y="720.0">6</text>
<text x="200.00000000000006" y="780.0" class="min-labels">30</text>
<line x1="200.00000000000003" y1="740.0" x2="200.00000000000006" y2="760.0"/>
<line x1="184.320730509852" y1="749.178284305241" x2="183.27544587717546" y2="759.1235032589237"/>
<line x1="168.8132463773361" y1="746.7221401100709" x2="166.73412946915852" y2="756.5036161174089"/>
<line x1="153.64745084375792" y1="742.6584774442731" x2="150.55728090000844" y2="752.1690426072246"/>
<line x1="138.98950353862998" y1="737.0318186463901" x2="134.922137107872" y2="746.1672732228162"/>
<text x="140.0" y="703.9230484541326">7</text>
<text x="109.99999999999999" y="755.884572681199" class="min-labels">35</text>
<line x1="130.0" y1="721.2435565298214" x2="119.99999999999999" y2="738.5640646055101"/>
<line x1="111.83221215612905" y1="721.3525491562422" x2="105.95435963320432" y2="729.4427190999916"/>
<line x1="99.63040904617131" y1="711.4717238216092" x2="92.93910298258274" y2="718.9031720763832"/>
<line x1="88.52827617839084" y1="700.3695909538287" x2="81.0968279236169" y2="707.0608970174173"/>
<line x1="78.6474508437579" y1="688.167787843871" x2="70.55728090000844" y2="694.0456403667957"/>
<text x="96.07695154586739" y="660.0">8</text>
<text x="44.11542731880107" y="690.0" class="min-labels">40</text>
<line x1="78.75644347017861" y1="670.0" x2="61.43593539448983" y2="680.0"/>
<line x1="62.96818135360985" y1="661.01049646137" x2="53.83272677718384" y2="665.077862892128"/>
<line x1="57.34152255572698" y1="646.3525491562422" x2="47.830957392775446" y2="649.4427190999916"/>
<line x1="53.277859889929175" y1="631.186753622664" x2="43.49638388259112" y2="633.2658705308415"/>
<line x1="50.82171569475898" y1="615.679269490148" x2="40.87649674107627" y2="616.7245541228245"/>
<text x="80.0" y="600.0">9</text>
<text x="20.0" y="600.0" class="min-labels">45</text>
<line x1="60.0" y1="600.0" x2="40.0" y2="600.0"/>
<line x1="50.82171569475898" y1="584.3207305098521" x2="40.87649674107627" y2="583.2754458771755"/>
<line x1="53.277859889929175" y1="568.8132463773361" x2="43.49638388259112" y2="566.7341294691585"/>
<line x1="57.341522555726954" y1="553.647450843758" x2="47.83095739277542" y2="550.5572809000084"/>
<line x1="62.96818135360985" y1="538.9895035386301" x2="53.83272677718384" y2="534.922137107872"/>
<text x="96.07695154586737" y="540.0">10</text>
<text x="44.11542731880104" y="510.0" class="min-labels">50</text>
<line x1="78.7564434701786" y1="530.0" x2="61.43593539448983" y2="520.0"/>
<line x1="78.64745084375788" y1="511.83221215612906" x2="70.55728090000841" y2="505.9543596332043"/>
<line x1="88.52827617839083" y1="499.6304090461713" x2="81.09682792361689" y2="492.93910298258277"/>
<line x1="99.63040904617128" y1="488.52827617839085" x2="92.9391029825827" y2="481.09682792361696"/>
<line x1="111.83221215612902" y1="478.6474508437579" x2="105.95435963320428" y2="470.55728090000844"/>
<text x="139.99999999999994" y="496.07695154586736">11</text>
<text x="109.99999999999991" y="444.1154273188011" class="min-labels">55</text>
<line x1="129.99999999999994" y1="478.7564434701786" x2="119.99999999999993" y2="461.4359353944899"/>
<line x1="138.98950353862998" y1="462.96818135360985" x2="134.922137107872" y2="453.83272677718384"/>
<line x1="153.64745084375787" y1="457.341522555727" x2="150.55728090000838" y2="447.8309573927754"/>
<line x1="168.81324637733604" y1="453.2778598899292" x2="166.73412946915843" y2="443.4963838825911"/>
<line x1="184.320730509852" y1="450.82171569475895" x2="183.27544587717546" y2="440.87649674107627"/>
<text x="199.99999999999997" y="480.0">12</text>
<text x="199.99999999999997" y="420.0" class="min-labels">0</text>
<line x1="199.99999999999997" y1="460.0" x2="199.99999999999997" y2="440.0"/>
<line x1="215.67926949014796" y1="450.82171569475895" x2="216.7245541228245" y2="440.87649674107627"/>
<line x1="231.1867536226639" y1="453.2778598899292" x2="233.2658705308415" y2="443.4963838825911"/>
<line x1="246.35254915624208" y1="457.34152255572695" x2="249.44271909999156" y2="447.8309573927754"/>
<line x1="261.01049646136994" y1="462.96818135360985" x2="265.077862892128" y2="453.83272677718384"/>
<circle cx="200" cy="600" r="10" class="centre-circ"/>
<line x1="600" y1="600" x2="683.2322204534682" y2="674.942627912192" class="mn-hand"/>
<line x1="600" y1="600" x2="584.7352803698764" y2="678.5301746758131" class="hr-hand"/>
<circle cx="600" cy="600" r="160.0"/>
<text x="660.0" y="496.07695154586736">1</text>
<text x="690.0" y="444.11542731880104" class="min-labels">5</text>
<line x1="670.0" y1="478.7564434701786" x2="680.0" y2="461.43593539448983"/>
<line x1="688.167787843871" y1="478.6474508437579" x2="694.0456403667957" y2="470.55728090000844"/>
<line x1="700.3695909538287" y1="488.5282761783909" x2="707.0608970174173" y2="481.09682792361696"/>
<line x1="711.4717238216091" y1="499.6304090461713" x2="718.903172076383" y2="492.9391029825827"/>
<line x1="721.3525491562422" y1="511.832212156129" x2="729.4427190999916" y2="505.95435963320426"/>
<text x="703.9230484541326" y="540.0">2</text>
<text x="755.884572681199" y="510.0" class="min-labels">10</text>
<line x1="721.2435565298214" y1="530.0" x2="738.5640646055102" y2="520.0"/>
<line x1="737.0318186463901" y1="538.98950353863" x2="746.1672732228162" y2="534.922137107872"/>
<line x1="742.658477444273" y1="553.6474508437578" x2="752.1690426072246" y2="550.5572809000084"/>
<line x1="746.7221401100709" y1="568.8132463773361" x2="756.5036161174089" y2="566.7341294691585"/>
<line x1="749.178284305241" y1="584.320730509852" x2="759.1235032589237" y2="583.2754458771755"/>
<text x="720.0" y="600.0">3</text>
<text x="780.0" y="600.0" class="min-labels">15</text>
<line x1="740.0" y1="600.0" x2="760.0" y2="600.0"/>
<line x1="749.178284305241" y1="615.679269490148" x2="759.1235032589237" y2="616.7245541228245"/>
<line x1="746.7221401100708" y1="631.1867536226639" x2="756.5036161174089" y2="633.2658705308415"/>
<line x1="742.658477444273" y1="646.3525491562422" x2="752.1690426072246" y2="649.4427190999916"/>
<line x1="737.0318186463901" y1="661.01049646137" x2="746.1672732228162" y2="665.077862892128"/>
<text x="703.9230484541326" y="660.0">4</text>
<text x="755.884572681199" y="690.0" class="min-labels">20</text>
<line x1="721.2435565298214" y1="670.0" x2="738.5640646055101" y2="680.0"/>
<line x1="721.3525491562422" y1="688.167787843871" x2="729.4427190999916" y2="694.0456403667957"/>
<line x1="711.4717238216091" y1="700.3695909538287" x2="718.903172076383" y2="707.0608970174173"/>
<line x1="700.3695909538287" y1="711.4717238216091" x2="707.0608970174173" y2="718.903172076383"/>
<line x1="688.167787843871" y1="721.352549156242" x2="694.0456403667957" y2="729.4427190999916"/>
<text x="660.0" y="703.9230484541326">5</text>
<text x="690.0" y="755.884572681199" class="min-labels">25</text>
<line x1="670.0" y1="721.2435565298214" x2="680.0" y2="738.5640646055101"/>
<line x1="661.01049646137" y1="737.0318186463901" x2="665.077862892128" y2="746.1672732228161"/>
<line x1="646.3525491562422" y1="742.658477444273" x2="649.4427190999917" y2="752.1690426072246"/>
<line x1="631.1867536226639" y1="746.7221401100708" x2="633.2658705308415" y2="756.5036161174089"/>
<line x1="615.679269490148" y1="749.178284305241" x2="616.7245541228245" y2="759.1235032589237"/>
<text x="600.0" y="720.0">6</text>
<text x="600.0" y="780.0" class="min-labels">30</text>
<line x1="600.0" y1="740.0" x2="600.0" y2="760.0"/>
<line x1="584.320730509852" y1="749.178284305241" x2="583.2754458771755" y2="759.1235032589237"/>
<line x1="568.8132463773361" y1="746.7221401100709" x2="566.7341294691585" y2="756.5036161174089"/>
<line x1="553.647450843758" y1="742.6584774442731" x2="550.5572809000084" y2="752.1690426072246"/>
<line x1="538.98950353863" y1="737.0318186463901" x2="534.922137107872" y2="746.1672732228162"/>
<text x="540.0" y="703.9230484541326">7</text>
<text x="510.0" y="755.884572681199" class="min-labels">35</text>
<line x1="530.0" y1="721.2435565298214" x2="520.0" y2="738.5640646055101"/>
<line x1="511.83221215612906" y1="721.3525491562422" x2="505.9543596332043" y2="729.4427190999916"/>
<line x1="499.6304090461713" y1="711.4717238216092" x2="492.93910298258277" y2="718.9031720763832"/>
<line x1="488.52827617839085" y1="700.3695909538287" x2="481.0968279236169" y2="707.0608970174173"/>
<line x1="478.6474508437579" y1="688.167787843871" x2="470.55728090000844" y2="694.0456403667957"/>
<text x="496.07695154586736" y="660.0">8</text>
<text x="444.11542731880104" y="690.0" class="min-labels">40</text>
<line x1="478.7564434701786" y1="670.0" x2="461.43593539448983" y2="680.0"/>
<line x1="462.96818135360985" y1="661.01049646137" x2="453.83272677718384" y2="665.077862892128"/>
<line x1="457.341522555727" y1="646.3525491562422" x2="447.8309573927754" y2="649.4427190999916"/>
<line x1="453.2778598899292" y1="631.186753622664" x2="443.4963838825911" y2="633.2658705308415"/>
<line x1="450.82171569475895" y1="615.679269490148" x2="440.87649674107627" y2="616.7245541228245"/>
<text x="480.0" y="600.0">9</text>
<text x="420.0" y="600.0" class="min-labels">45</text>
<line x1="460.0" y1="600.0" x2="440.0" y2="600.0"/>
<line x1="450.82171569475895" y1="584.3207305098521" x2="440.87649674107627" y2="583.2754458771755"/>
<line x1="453.2778598899292" y1="568.8132463773361" x2="443.4963838825911" y2="566.7341294691585"/>
<line x1="457.34152255572695" y1="553.647450843758" x2="447.8309573927754" y2="550.5572809000084"/>
<line x1="462.96818135360985" y1="538.9895035386301" x2="453.83272677718384" y2="534.922137107872"/>
<text x="496.07695154586736" y="540.0">10</text>
<text x="444.11542731880104" y="510.0" class="min-labels">50</text>
<line x1="478.7564434701786" y1="530.0" x2="461.43593539448983" y2="520.0"/>
<line x1="478.6474508437579" y1="511.83221215612906" x2="470.55728090000844" y2="505.9543596332043"/>
<line x1="488.5282761783908" y1="499.6304090461713" x2="481.0968279236169" y2="492.93910298258277"/>
<line x1="499.6304090461713" y1="488.52827617839085" x2="492.9391029825827" y2="481.09682792361696"/>
<line x1="511.832212156129" y1="478.6474508437579" x2="505.95435963320426" y2="470.55728090000844"/>
<text x="540.0" y="496.07695154586736">11</text>
<text x="509.9999999999999" y="444.1154273188011" class="min-labels">55</text>
<line x1="530.0" y1="478.7564434701786" x2="519.9999999999999" y2="461.4359353944899"/>
<line x1="538.98950353863" y1="462.96818135360985" x2="534.922137107872" y2="453.83272677718384"/>
<line x1="553.6474508437578" y1="457.341522555727" x2="550.5572809000084" y2="447.8309573927754"/>
<line x1="568.813246377336" y1="453.2778598899292" x2="566.7341294691585" y2="443.4963838825911"/>
<line x1="584.320730509852" y1="450.82171569475895" x2="583.2754458771755" y2="440.87649674107627"/>
<text x="600.0" y="480.0">12</text>
<text x="600.0" y="420.0" class="min-labels">0</text>
<line x1="600.0" y1="460.0" x2="600.0" y2="440.0"/>
<line x1="615.6792694901479" y1="450.82171569475895" x2="616.7245541228244" y2="440.87649674107627"/>
<line x1="631.1867536226639" y1="453.2778598899292" x2="633.2658705308415" y2="443.4963838825911"/>
<line x1="646.352549156242" y1="457.34152255572695" x2="649.4427190999916" y2="447.8309573927754"/>
<line x1="661.0104964613699" y1="462.96818135360985" x2="665.077862892128" y2="453.83272677718384"/>
<circle cx="600" cy="600" r="10" class="centre-circ"/>
<line x1="200" y1="1000" x2="256.0" y2="903.0051547761428" class="mn-hand"/>
<line x1="200" y1="1000" x2="270.96086665425776" y2="963.0601109411973" class="hr-hand"/>
<circle cx="200" cy="1000" r="160.0"/>
<text x="260.0" y="896.0769515458674">1</text>
<text x="290.0" y="844.115427318801" class="min-labels">5</text>
<line x1="270.0" y1="878.7564434701786" x2="280.0" y2="861.4359353944899"/>
<line x1="288.167787843871" y1="878.647450843758" x2="294.04564036679574" y2="870.5572809000084"/>
<line x1="300.3695909538287" y1="888.5282761783909" x2="307.06089701741735" y2="881.096827923617"/>
<line x1="311.47172382160915" y1="899.6304090461713" x2="318.90317207638304" y2="892.9391029825827"/>
<line x1="321.3525491562421" y1="911.832212156129" x2="329.44271909999156" y2="905.9543596332043"/>
<text x="303.92304845413264" y="940.0">2</text>
<text x="355.88457268119896" y="910.0" class="min-labels">10</text>
<line x1="321.24355652982143" y1="930.0" x2="338.5640646055102" y2="920.0"/>
<line x1="337.03181864639015" y1="938.98950353863" x2="346.16727322281616" y2="934.922137107872"/>
<line x1="342.658477444273" y1="953.6474508437578" x2="352.1690426072246" y2="950.5572809000084"/>
<line x1="346.7221401100709" y1="968.8132463773361" x2="356.5036161174089" y2="966.7341294691585"/>
<line x1="349.178284305241" y1="984.320730509852" x2="359.12350325892373" y2="983.2754458771755"/>
<text x="320.0" y="1000.0">3</text>
<text x="380.0" y="1000.0" class="min-labels">15</text>
<line x1="340.0" y1="1000.0" x2="360.0" y2="1000.0"/>
<line x1="349.178284305241" y1="1015.679269490148" x2="359.12350325892373" y2="1016.7245541228245"/>
<line x1="346.7221401100708" y1="1031.186753622664" x2="356.5036161174089" y2="1033.2658705308415"/>
<line x1="342.658477444273" y1="1046.352549156242" x2="352.1690426072246" y2="1049.4427190999916"/>
<line x1="337.03181864639015" y1="1061.01049646137" x2="346.16727322281616" y2="1065.077862892128"/>
<text x="303.92304845413264" y="1060.0">4</text>
<text x="355.88457268119896" y="1090.0" class="min-labels">20</text>
<line x1="321.2435565298214" y1="1070.0" x2="338.56406460551017" y2="1080.0"/>
<line x1="321.3525491562421" y1="1088.1677878438709" x2="329.44271909999156" y2="1094.0456403667956"/>
<line x1="311.47172382160915" y1="1100.3695909538287" x2="318.90317207638304" y2="1107.0608970174173"/>
<line x1="300.3695909538287" y1="1111.4717238216092" x2="307.06089701741735" y2="1118.903172076383"/>
<line x1="288.167787843871" y1="1121.352549156242" x2="294.04564036679574" y2="1129.4427190999916"/>
<text x="260.0" y="1103.9230484541326">5</text>
<text x="290.0" y="1155.884572681199" class="min-labels">25</text>
<line x1="270.0" y1="1121.2435565298215" x2="280.0" y2="1138.56406460551"/>
<line x1="261.01049646137005" y1="1137.03181864639" x2="265.077862892128" y2="1146.1672732228162"/>
<line x1="246.35254915624216" y1="1142.658477444273" x2="249.44271909999162" y2="1152.1690426072246"/>
<line x1="231.18675362266393" y1="1146.7221401100708" x2="233.2658705308415" y2="1156.503616117409"/>
<line x1="215.67926949014802" y1="1149.178284305241" x2="216.72455412282454" y2="1159.1235032589238"/>
<text x="200.00000000000003" y="1120.0">6</text>
<text x="200.00000000000006" y="1180.0" class="min-labels">30</text>
<line x1="200.00000000000003" y1="1140.0" x2="200.00000000000006" y2="1160.0"/>
<line x1="184.320730509852" y1="1149.178284305241" x2="183.27544587717546" y2="1159.1235032589238"/>
<line x1="168.8132463773361" y1="1146.7221401100708" x2="166.73412946915852" y2="1156.503616117409"/>
<line x1="153.64745084375792" y1="1142.658477444273" x2="150.55728090000844" y2="1152.1690426072246"/>
<line x1="138.98950353862998" y1="1137.03181864639" x2="134.922137107872" y2="1146.1672732228162"/>
<text x="140.0" y="1103.9230484541326">7</text>
<text x="109.99999999999999" y="1155.884572681199" class="min-labels">35</text>
<line x1="130.0" y1="1121.2435565298215" x2="119.99999999999999" y2="1138.56406460551"/>
<line x1="111.83221215612905" y1="1121.352549156242" x2="105.95435963320432" y2="1129.4427190999916"/>
<line x1="99.63040904617131" y1="1111.4717238216092" x2="92.93910298258274" y2="1118.903172076383"/>
<line x1="88.52827617839084" y1="1100.3695909538287" x2="81.0968279236169" y2="1107.0608970174173"/>
<line x1="78.6474508437579" y1="1088.1677878438709" x2="70.55728090000844" y2="1094.0456403667956"/>
<text x="96.07695154586739" y="1060.0">8</text>
<text x="44.11542731880107" y="1090.0" class="min-labels">40</text>
<line x1="78.75644347017861" y1="1070.0" x2="61.43593539448983" y2="1080.0"/>
<line x1="62.96818135360985" y1="1061.01049646137" x2="53.83272677718384" y2="1065.077862892128"/>
<line x1="57.34152255572698" y1="1046.352549156242" x2="47.830957392775446" y2="1049.4427190999916"/>
<line x1="53.277859889929175" y1="1031.186753622664" x2="43.49638388259112" y2="1033.2658705308415"/>
<line x1="50.82171569475898" y1="1015.679269490148" x2="40.87649674107627" y2="1016.7245541228245"/>
<text x="80.0" y="1000.0">9</text>
<text x="20.0" y="1000.0" class="min-labels">45</text>
<line x1="60.0" y1="1000.0" x2="40.0" y2="1000.0"/>
<line x1="50.82171569475898" y1="984.3207305098521" x2="40.87649674107627" y2="983.2754458771755"/>
<line x1="53.277859889929175" y1="968.8132463773361" x2="43.49638388259112" y2="966.7341294691585"/>
<line x1="57.341522555726954" y1="953.647450843758" x2="47.83095739277542" y2="950.5572809000084"/>
<line x1="62.96818135360985" y1="938.9895035386301" x2="53.83272677718384" y2="934.922137107872"/>
<text x="96.07695154586737" y="940.0">10</text>
<text x="44.11542731880104" y="910.0" class="min-labels">50</text>
<line x1="78.7564434701786" y1="930.0" x2="61.43593539448983" y2="920.0"/>
<line x1="78.64745084375788" y1="911.832212156129" x2="70.55728090000841" y2="905.9543596332044"/>
<line x1="88.52827617839083" y1="899.6304090461713" x2="81.09682792361689" y2="892.9391029825828"/>
<line x1="99.63040904617128" y1="888.5282761783909" x2="92.9391029825827" y2="881.096827923617"/>
<line x1="111.83221215612902" y1="878.647450843758" x2="105.95435963320428" y2="870.5572809000084"/>
<text x="139.99999999999994" y="896.0769515458674">11</text>
<text x="109.99999999999991" y="844.115427318801" class="min-labels">55</text>
<line x1="129.99999999999994" y1="878.7564434701786" x2="119.99999999999993" y2="861.4359353944899"/>
<line x1="138.98950353862998" y1="862.9681813536099" x2="134.922137107872" y2="853.8327267771838"/>
<line x1="153.64745084375787" y1="857.341522555727" x2="150.55728090000838" y2="847.8309573927754"/>
<line x1="168.81324637733604" y1="853.2778598899292" x2="166.73412946915843" y2="843.4963838825911"/>
<line x1="184.320730509852" y1="850.821715694759" x2="183.27544587717546" y2="840.8764967410763"/>
<text x="199.99999999999997" y="880.0">12</text>
<text x="199.99999999999997" y="820.0" class="min-labels">0</text>
<line x1="199.99999999999997" y1="860.0" x2="199.99999999999997" y2="840.0"/>
<line x1="215.67926949014796" y1="850.821715694759" x2="216.7245541228245" y2="840.8764967410763"/>
<line x1="231.1867536226639" y1="853.2778598899292" x2="233.2658705308415" y2="843.4963838825911"/>
<line x1="246.35254915624208" y1="857.3415225557269" x2="249.44271909999156" y2="847.8309573927754"/>
<line x1="261.01049646136994" y1="862.9681813536099" x2="265.077862892128" y2="853.8327267771838"/>
<circle cx="200" cy="1000" r="10" class="centre-circ"/>
<line x1="600" y1="1000" x2="525.0573720878078" y2="916.7677795465319" class="mn-hand"/>
<line x1="600" y1="1000" x2="644.1549588249646" y2="1066.7108657653735" class="hr-hand"/>
<circle cx="600" cy="1000" r="160.0"/>
<text x="660.0" y="896.0769515458674">1</text>
<text x="690.0" y="844.115427318801" class="min-labels">5</text>
<line x1="670.0" y1="878.7564434701786" x2="680.0" y2="861.4359353944899"/>
<line x1="688.167787843871" y1="878.647450843758" x2="694.0456403667957" y2="870.5572809000084"/>
<line x1="700.3695909538287" y1="888.5282761783909" x2="707.0608970174173" y2="881.096827923617"/>
<line x1="711.4717238216091" y1="899.6304090461713" x2="718.903172076383" y2="892.9391029825827"/>
<line x1="721.3525491562422" y1="911.832212156129" x2="729.4427190999916" y2="905.9543596332043"/>
<text x="703.9230484541326" y="940.0">2</text>
<text x="755.884572681199" y="910.0" class="min-labels">10</text>
<line x1="721.2435565298214" y1="930.0" x2="738.5640646055102" y2="920.0"/>
<line x1="737.0318186463901" y1="938.98950353863" x2="746.1672732228162" y2="934.922137107872"/>
<line x1="742.658477444273" y1="953.6474508437578" x2="752.1690426072246" y2="950.5572809000084"/>
<line x1="746.7221401100709" y1="968.8132463773361" x2="756.5036161174089" y2="966.7341294691585"/>
<line x1="749.178284305241" y1="984.320730509852" x2="759.1235032589237" y2="983.2754458771755"/>
<text x="720.0" y="1000.0">3</text>
<text x="780.0" y="1000.0" class="min-labels">15</text>
<line x1="740.0" y1="1000.0" x2="760.0" y2="1000.0"/>
<line x1="749.178284305241" y1="1015.679269490148" x2="759.1235032589237" y2="1016.7245541228245"/>
<line x1="746.7221401100708" y1="1031.186753622664" x2="756.5036161174089" y2="1033.2658705308415"/>
<line x1="742.658477444273" y1="1046.352549156242" x2="752.1690426072246" y2="1049.4427190999916"/>
<line x1="737.0318186463901" y1="1061.01049646137" x2="746.1672732228162" y2="1065.077862892128"/>
<text x="703.9230484541326" y="1060.0">4</text>
<text x="755.884572681199" y="1090.0" class="min-labels">20</text>
<line x1="721.2435565298214" y1="1070.0" x2="738.5640646055101" y2="1080.0"/>
<line x1="721.3525491562422" y1="1088.1677878438709" x2="729.4427190999916" y2="1094.0456403667956"/>
<line x1="711.4717238216091" y1="1100.3695909538287" x2="718.903172076383" y2="1107.0608970174173"/>
<line x1="700.3695909538287" y1="1111.4717238216092" x2="707.0608970174173" y2="1118.903172076383"/>
<line x1="688.167787843871" y1="1121.352549156242" x2="694.0456403667957" y2="1129.4427190999916"/>
<text x="660.0" y="1103.9230484541326">5</text>
<text x="690.0" y="1155.884572681199" class="min-labels">25</text>
<line x1="670.0" y1="1121.2435565298215" x2="680.0" y2="1138.56406460551"/>
<line x1="661.01049646137" y1="1137.03181864639" x2="665.077862892128" y2="1146.1672732228162"/>
<line x1="646.3525491562422" y1="1142.658477444273" x2="649.4427190999917" y2="1152.1690426072246"/>
<line x1="631.1867536226639" y1="1146.7221401100708" x2="633.2658705308415" y2="1156.503616117409"/>
<line x1="615.679269490148" y1="1149.178284305241" x2="616.7245541228245" y2="1159.1235032589238"/>
<text x="600.0" y="1120.0">6</text>
<text x="600.0" y="1180.0" class="min-labels">30</text>
<line x1="600.0" y1="1140.0" x2="600.0" y2="1160.0"/>
<line x1="584.320730509852" y1="1149.178284305241" x2="583.2754458771755" y2="1159.1235032589238"/>
<line x1="568.8132463773361" y1="1146.7221401100708" x2="566.7341294691585" y2="1156.503616117409"/>
<line x1="553.647450843758" y1="1142.658477444273" x2="550.5572809000084" y2="1152.1690426072246"/>
<line x1="538.98950353863" y1="1137.03181864639" x2="534.922137107872" y2="1146.1672732228162"/>
<text x="540.0" y="1103.9230484541326">7</text>
<text x="510.0" y="1155.884572681199" class="min-labels">35</text>
<line x1="530.0" y1="1121.2435565298215" x2="520.0" y2="1138.56406460551"/>
<line x1="511.83221215612906" y1="1121.352549156242" x2="505.9543596332043" y2="1129.4427190999916"/>
<line x1="499.6304090461713" y1="1111.4717238216092" x2="492.93910298258277" y2="1118.903172076383"/>
<line x1="488.52827617839085" y1="1100.3695909538287" x2="481.0968279236169" y2="1107.0608970174173"/>
<line x1="478.6474508437579" y1="1088.1677878438709" x2="470.55728090000844" y2="1094.0456403667956"/>
<text x="496.07695154586736" y="1060.0">8</text>
<text x="444.11542731880104" y="1090.0" class="min-labels">40</text>
<line x1="478.7564434701786" y1="1070.0" x2="461.43593539448983" y2="1080.0"/>
<line x1="462.96818135360985" y1="1061.01049646137" x2="453.83272677718384" y2="1065.077862892128"/>
<line x1="457.341522555727" y1="1046.352549156242" x2="447.8309573927754" y2="1049.4427190999916"/>
<line x1="453.2778598899292" y1="1031.186753622664" x2="443.4963838825911" y2="1033.2658705308415"/>
<line x1="450.82171569475895" y1="1015.679269490148" x2="440.87649674107627" y2="1016.7245541228245"/>
<text x="480.0" y="1000.0">9</text>
<text x="420.0" y="1000.0" class="min-labels">45</text>
<line x1="460.0" y1="1000.0" x2="440.0" y2="1000.0"/>
<line x1="450.82171569475895" y1="984.3207305098521" x2="440.87649674107627" y2="983.2754458771755"/>
<line x1="453.2778598899292" y1="968.8132463773361" x2="443.4963838825911" y2="966.7341294691585"/>
<line x1="457.34152255572695" y1="953.647450843758" x2="447.8309573927754" y2="950.5572809000084"/>
<line x1="462.96818135360985" y1="938.9895035386301" x2="453.83272677718384" y2="934.922137107872"/>
<text x="496.07695154586736" y="940.0">10</text>
<text x="444.11542731880104" y="910.0" class="min-labels">50</text>
<line x1="478.7564434701786" y1="930.0" x2="461.43593539448983" y2="920.0"/>
<line x1="478.6474508437579" y1="911.832212156129" x2="470.55728090000844" y2="905.9543596332044"/>
<line x1="488.5282761783908" y1="899.6304090461713" x2="481.0968279236169" y2="892.9391029825828"/>
<line x1="499.6304090461713" y1="888.5282761783909" x2="492.9391029825827" y2="881.096827923617"/>
<line x1="511.832212156129" y1="878.647450843758" x2="505.95435963320426" y2="870.5572809000084"/>
<text x="540.0" y="896.0769515458674">11</text>
<text x="509.9999999999999" y="844.115427318801" class="min-labels">55</text>
<line x1="530.0" y1="878.7564434701786" x2="519.9999999999999" y2="861.4359353944899"/>
<line x1="538.98950353863" y1="862.9681813536099" x2="534.922137107872" y2="853.8327267771838"/>
<line x1="553.6474508437578" y1="857.341522555727" x2="550.5572809000084" y2="847.8309573927754"/>
<line x1="568.813246377336" y1="853.2778598899292" x2="566.7341294691585" y2="843.4963838825911"/>
<line x1="584.320730509852" y1="850.821715694759" x2="583.2754458771755" y2="840.8764967410763"/>
<text x="600.0" y="880.0">12</text>
<text x="600.0" y="820.0" class="min-labels">0</text>
<line x1="600.0" y1="860.0" x2="600.0" y2="840.0"/>
<line x1="615.6792694901479" y1="850.821715694759" x2="616.7245541228244" y2="840.8764967410763"/>
<line x1="631.1867536226639" y1="853.2778598899292" x2="633.2658705308415" y2="843.4963838825911"/>
<line x1="646.352549156242" y1="857.3415225557269" x2="649.4427190999916" y2="847.8309573927754"/>
<line x1="661.0104964613699" y1="862.9681813536099" x2="665.077862892128" y2="853.8327267771838"/>
<circle cx="600" cy="1000" r="10" class="centre-circ"/>
</svg>
