<?xml version="1.0" encoding="utf-8"?>
<svg xmlns="http://www.w3.org/2000/svg"
     xmlns:xlink="http://www.w3.org/1999/xlink" width="600" height="400" >

            <defs>
            <style type="text/css"><![CDATA[
.arc { stroke: #4f3e90; stroke-width: 4px; fill: none; }
.hex { stroke: #aaaaaa; stroke-width: 4px; fill: none; }
]]></style>
            </defs>
<path d="M132.5 264.9519052838329 L57.5 264.9519052838329 L20.0 200.0 L57.5 135.0480947161671 L132.5 135.0480947161671 L170.0 200.0z" class="hex"/>
<path d="M95.0,135.0480947161671 A112.5,112.5 0 0 1 38.750000000000014 232.47595264191645" class="arc"/>
<path d="M95.0,264.9519052838329 A112.5,112.5 0 0 1 151.25 167.52404735808355" class="arc"/>
<path d="M151.25 232.47595264191645 L115.26829449695728 211.7019052838329 M104.87598965154402 205.7019052838329 L85.124010348456 194.29809471616713 M74.73170550304273 188.29809471616713 L38.75000000000001 167.52404735808358" class="arc"/>
<path d="M301.25 264.9519052838329 L226.25 264.9519052838329 L188.75 200.0 L226.25 135.0480947161671 L301.25 135.0480947161671 L338.75 200.0z" class="hex"/>
<path d="M207.5,167.52404735808358 A112.5,112.5 0 0 1 263.75 264.9519052838329" class="arc"/>
<path d="M320.0,232.47595264191645 A112.5,112.5 0 0 1 263.75 135.0480947161671" class="arc"/>
<path d="M320.0 167.52404735808355 L284.0182944969573 188.2980947161671 M273.62598965154405 194.2980947161671 L253.87401034845598 205.7019052838329 M243.48170550304272 211.7019052838329 L207.5 232.47595264191645" class="arc"/>
<path d="M470.0 264.9519052838329 L395.0 264.9519052838329 L357.5 200.0 L395.0 135.0480947161671 L470.0 135.0480947161671 L507.5 200.0z" class="hex"/>
<path d="M376.25,232.47595264191645 A112.5,112.5 0 0 1 488.75 232.47595264191645" class="arc"/>
<path d="M488.75,167.52404735808355 A112.5,112.5 0 0 1 376.25 167.52404735808358" class="arc"/>
<path d="M432.5 135.0480947161671 L432.5 176.5961894323342 M432.5 188.5961894323342 L432.5 211.4038105676658 M432.5 223.4038105676658 L432.5 264.9519052838329" class="arc"/>
</svg>
