<?xml version="1.0" encoding="utf-8"?>

<svg xmlns="http://www.w3.org/2000/svg"
     xmlns:xlink="http://www.w3.org/1999/xlink" width="1920" height="1200" >
<defs>

<style type="text/css"><![CDATA[

path {
    fill: none;
    stroke: #f8f8f8;
    stroke-width: 5px;
}

]]></style>
</defs>
<path d="M1200, 800 L1200.2,800.0 L1200.2030209165498,800.0203700370885 L1200.2040127707287,800.0413554359986 L1200.2028822396803,800.0627588311352 L1200.1995546926687,800.0843703708276 L1200.1939757451223,800.1059694325296 L1200.1861126614615,800.1273265222042 L1200.1759555856588,800.148205345278 L1200.1635185794623,800.1683650342086 L1200.1488404494207,800.1875625154413 L1200.1319853453256,800.2055549963512 L1200.1130431143986,800.2221025507001 L1200.0921293974982,800.2369707792204 L1200.0693854557983,800.2499335201841 L1200.0449777187778,800.2607755832615 L1200.019097046939,800.2692954786361 L1199.9919577054268,800.2753081122491 L1199.9637960476364,800.2786474172184 L1199.9348689109254,800.2791688909275 L1199.9054517296902,800.2767520070411 L1199.8758363742788,800.2713024717681 L1199.846328727459,800.2627542940979 L1199.8172460134272,800.2510716404702 L1199.788913897573,800.2362504454168 L1199.7616633783953,800.2183197511425 L1199.7358274960325,800.1973427507811 L1199.7117378848234,800.1734175121723 L1199.6897212000777,800.1466773614482 L1199.6700954518053,800.1172909084806 L1199.6531662804784,800.0854616993015 L1199.6392232119397,800.0514274839594 L1199.6285359303126,800.0154590918792 L1199.621350609159,799.9778589106288 L1199.6178863421605,799.9389589680374 L1199.6183317152213,799.8991186218079 L1199.6228415621079,799.858721865101 L1199.6315339455118,799.8181742609812 L1199.6444874047388,799.7778995230815 L1199.6617385100865,799.7383357642948 L1199.6832797623517,799.6999314397184 L1199.709057873824,799.6631410143814 L1199.7389724645573,799.6284203904544 L1199.7728752046874,799.5962221326038 L1199.8105694300941,799.5669905338723 L1199.8518102547994,799.5411565678868 L1199.8963051991802,799.5191327762683 L1199.943715348391,799.5013081428033 L1199.9936570503473,799.4880430081761 L1200.0457041572954,799.479664080831 L1200.099390809381,799.4764596007786 L1200.1542147528332,799.478674713863 L1200.2096411793973,799.4865071141135 L1200.2651070675902,799.5001030113257 L1200.3200260002284,799.5195534798905 L1200.3737934265991,799.5448912431408 L1200.4257923316247,799.5760879450795 L1200.4753992685366,799.6130519583037 L1200.5219907059302,799.6556267732481 L1200.5649496347482,799.7035900095464 L1200.60367237575,799.7566530853828 L1200.6375755234833,799.814461575191 L1200.6661029587099,799.8765962800007 L1200.6887328577352,799.9425750281689 L1200.7049846242069,800.0118552172108 L1200.7144256667284,800.0838371000298 L1200.7166779441443,800.1578678110858 L1200.7114241996214,800.2332461200155 L1200.698413804737,800.3092278919958 L1200.6774681356997,800.3850322258068 L1200.6484854056152,800.4598482321749 L1200.6114448793635,800.5328424066684 L1200.5664104012094,800.603166543243 L1200.5135331697022,800.6699661266066 L1200.4530536997231,800.7323891339698 L1200.3853029177092,800.7895951695805 L1200.3107023430669,800.8407648487778 L1200.2297633165565,800.8851093422672 L1200.143085244937,800.9218799859684 L1200.0513528403328,800.950377857232 L1199.9553323425594,800.96996321453 L1199.855866722959,800.9800646949736 L1199.7538698790204,800.9801881622631 L1199.650319840146,800.9699250970046 L1199.5462510162406,800.9489604217658 L1199.4427455322336,800.9170796548415 L1199.340923703102,800.8741752894946 L1199.2419337152933,800.8202522994319 L1199.14694059156,800.7554326764886 L1199.057114526946,800.6799589129187 L1198.9736186939213,800.594196348303 L1198.8975966242879,800.4986343098561 L1198.83015928435,800.393885984802 L1198.7723719678622,800.2806869744259 L1198.7252411382694,800.1598924913299 L1198.6897013576647,800.0324731742343 L1198.6666024445783,799.8995095082747 L1198.6566970060826,799.7621848530385 L1198.6606284916734,799.6217770954364 L1198.6789199168627,799.4796489597774 L1198.711963403371,799.3372370229799 L1198.7600106801276,799.1960394985272 L1198.8231646850015,799.0576028684301 L1198.9013724012152,798.9235074579061 L1198.994419054779,798.795352062557 L1199.1019237900027,798.6747377523544 L1199.223336929257,798.5632509905412 L1199.3579389106847,798.462446218457 L1199.5048409836093,798.3738280691206 L1199.6629877259938,798.2988333829838 L1199.8311614316256,798.2388132084436 L1200.0079883968174,798.1950149773156 L1200.1919471174995,798.1685650513773 L1200.3813783877624,798.1604518401591 L1200.5744972703892,798.1715096922758 L1200.7694068888704,798.2024037626426 L1200.9641139690166,798.2536160558386 L1201.1565460368076,798.3254328415749 L1201.344570157745,798.4179336316837 L1201.5260130819497,798.530981899216 L1201.6986826388052,798.6642177091376 L1201.8603902053221,798.8170524167612 L1202.0089740538453,798.9886655745102 L1202.1423233674625,799.1780041699269 L1202.258402695767,799.3837842981463 L1202.3552766096718,799.6044953504544 L1202.4311343020186,799.8384067772113 L1202.4843138709643,800.0835774585024 L1202.5133260157552,800.3378676895954 L1202.5168768696947,800.5989537608534 L1202.493889693027,800.8643450834113 L1202.4435251492303,801.1314037829553 L1202.3651998919413,801.3973666546 L1202.2586031965243,801.6593693424678 L1202.123711380155,801.9144725784191 L1201.9607997672947,802.1596902857955 L1201.7704519735269,802.3920193263438 L1201.5535662998936,802.6084706420162 L1201.3113590520154,802.8061015184179 L1201.0453646233086,802.982048673634 L1200.7574322093558,803.1335618553251 L1200.449719050778,803.2580376106505 L1200.1246801345708,803.3530528780583 L1199.7850543185516,803.4163980375431 L1199.4338468800504,803.4461090468886 L1199.0743085279207,803.4404982858931 L1198.709910956048,803.3981837288559 L1198.3443190563783,803.3181160678201 L1197.9813599497322,803.1996034153952 L1197.6249890328522,803.0423332264851 L1197.279253279874,802.846391093022 L1196.948252075235,802.6122760848351 L1196.636095892509,802.3409123330601 L1196.3468631693315,802.0336565799438 L1196.084555761986,801.6923014503877 L1195.853053393948,801.3190742359494 L1195.6560675402377,800.9166310210514 L1195.4970952134674,800.4880460235823 L1195.3793731375026,800.0367960675924 L1195.3058328103987,799.5667401540339 L1195.279056969303,799.0820941460796 L1195.3012379760837,798.5874006380133 L1195.3741386432507,798.087494130573 L1195.499056015064,797.5874616903941 L1195.6767886084162,797.0925993263297 L1195.9076076019805,796.60836437033 L1196.1912324401992,796.1403242046658 L1196.5268112909241,795.6941017299582 L1196.9129067619658,795.2753180191339 L1197.3474872426068,794.8895326504198 L1197.8279241914233,794.5421822572235 L1198.3509956418493,794.2385178736009 L1198.912896142066,793.9835416903935 L1199.509253286428,793.7819438684752 L1200.135150932172,793.638040081317 L1200.7851591281067,793.5557104787848 L1201.4533707119092,793.5383407772537 L1202.1334444601953,793.5887661873536 L1202.8186546013178,793.7092188896105 L1203.5019464256557,793.9012797596165 L1204.1759976526691,794.1658350279464 L1204.833285139079,794.5030385356876 L1205.4661564389216,794.9122802140945 L1206.0669056548456,795.3921613765475 L1206.6278529516267,795.9404773627747 L1207.1414270383912,796.554208019389 L1207.6002498662592,797.229516437467 L1207.9972227338856,797.9617562975307 L1208.325612945504,798.745488095336 L1208.579140125304,799.574504438885 L1208.7520612590451,800.4418645186727 L1208.839253509388,801.339937760097 L1208.8362938361115,802.2604565699775 L1208.739534446715,803.1945779891216 L1208.5461731073492,804.1329539607854 L1208.2543173589036,805.0658098216909 L1207.8630417087304,805.9830305190384 L1207.372436905005,806.8742539547787 L1206.783650448224,807.7289707584135 L1206.098917552734,808.5366296929263 L1205.321581840309,809.2867478062642 L1204.4561051273445,809.9690243542547 L1203.508065756816,810.5734574411103 L1202.4841450251822,811.0904622518473 L1201.392101362281,811.5109896881343 L1200.2407320381387,811.8266441663029 L1199.0398222936283,812.0297992944804 L1197.8000819210292,812.113710115924 L1196.5330694546606,812.072620588464 L1195.2511042696415,811.9018649661787 L1193.9671670271994,811.5979617596416 L1192.6947890463766,811.1586989757344 L1191.4479313230538,810.5832093774594 L1190.2408540563777,809.8720345585853 L1189.087977678427,809.0271766973561 L1188.0037365136652,808.0521369377643 L1187.0024263188388,806.9519394457451 L1186.098047069903,805.7331403006389 L1185.3041424687117,804.4038205087767 L1184.6336377370906,802.9735625652637 L1184.0986773480445,801.453410141035 L1183.7104644118435,799.8558106338949 L1183.4791034872885,798.1945404932563 L1183.4134486243981,796.4846134072403 L1183.520958463002,794.7421716260985 L1183.8075602113918,792.984360885887 L1184.2775243094693,791.2291895891149 L1184.9333515412152,789.4953730927929 L1185.7756743013254,787.8021641469023 L1186.8031736403989,786.1691707156972 L1188.0125136120587,784.6161625983088 L1189.3982943241415,783.1628684416785 L1190.953024955017,781.8287649057091 L1192.667117835897,780.6328598955531 L1194.5289045215914,779.5934719169949 L1196.5246745767035,778.7280077358987 L1198.6387375930992,778.0527406296768 L1200.8535087292544,777.5825916058286 L1203.1496178245698,777.3309160280755 L1205.5060418939813,777.3092981328866 L1207.9002605523747,777.5273559368619 L1210.3084336568402,777.9925590273286 L1212.7056001902033,778.710061693638 L1215.0658971442133,779.6825537943027 L1217.362796898083,780.9101316648399 L1219.5693613305912,782.3901912527779 L1221.6585106546634,784.117345519877 L1223.603304725184,786.0833679775974 L1225.377234346769,788.2771640209467 L1226.9545199012757,790.6847714990872 L1228.3104144278377,793.2893917098304 L1229.421508124003,796.071451731047 L1230.2660310977708,799.0086987070648 L1230.824151089481,802.0763263945744 L1231.0782628019483,805.2471339429874 L1231.0132654289955,808.4917165414341 L1230.6168249585091,811.7786872117359 L1229.879617847817,815.0749286670845 L1228.7955527278275,818.3458737933219 L1227.3619668888484,821.5558129473827 L1225.5797944358364,824.6682259094671 L1223.4537031741731,827.6461359758558 L1220.9921974986237,830.4524833419929 L1218.2076848072538,833.0505146046213 L1215.1165032476376,835.4041849114568 L1211.7389089231408,837.4785690111221 L1208.0990210404477,839.2402772087739 L1204.2247238634072,840.657872017834 L1200.1475247498774,841.702281119051 L1195.9023679843172,842.3472020981617 L1191.5274045757913,842.5694943357629 L1187.0637186648162,842.3495533703987 L1182.5550116687425,841.6716630507331 L1178.047245789524,840.5243208369833 L1173.588249004807,838.9005317070947 L1169.2272841581769,836.7980662705158 L1165.0145852517585,834.2196788924361 L1161.000864518712,831.1732818840131 L1157.236794308962,827.6720721189151 L1153.772468253105,823.7346067923175 L1150.6568465713556,819.384825443651 L1147.9371907610966,814.6520158166094 L1145.6584932227813,809.5707216263066 L1143.8629076645097,804.1805908405903 L1142.589186355675,798.5261636563063 L1141.872130475223,792.6565999572128 L1141.7420599161087,786.6253466731303 L1142.2243089609055,780.4897461141725 L1143.3387542310365,774.3105870235 L1145.099381231233,768.1516007704529 L1147.513895659655,762.0789057863625 L1150.5833854313248,756.1604040206652 L1154.302039067626,750.4651338577571 L1158.6569257377284,745.0625845778501 L1163.6278417999222,740.0219780602214 L1169.1872281836786,735.4115240070964 L1175.300162379386,731.2976555033488 L1181.924428165484,727.7442522137991 L1189.0106655062912,724.8118589489573 L1196.5026023032049,722.5569076946455 L1204.3373688828324,721.030951494608 L1212.4458952645307,720.2799187919098 L1220.753390373976,720.3433969692485 L1229.179901466604,721.2539538754295 L1237.6409511035638,723.0365060811653 L1246.0482480921924,725.7077424687596 L1254.3104678724421,729.2756115247745 L1262.3340969100623,733.7388803709684 L1270.0243347567623,739.0867731361841 L1277.286046567512,745.2986957409872 L1284.0247580359517,752.3440535393595 L1290.1476839311135,760.1821675402965 L1295.5647807026087,768.7622941206291 L1300.1898129772203,778.0237522436269 L1303.9414232072438,787.896161222065 L1306.7441932592099,798.2997910164848 L1308.5296863595142,809.146025947568 L1309.2374575490157,820.3379415350538 L1308.8160206489733,831.7709929645506 L1307.2237597121327,843.3338124390141 L1304.4297730305009,854.9091114053497 L1300.4146379995632,866.3746823711164 L1295.1710855002348,877.6044937548209 L1288.7045729563674,888.46986995939 L1281.033745857346,898.8407476361789 L1272.1907783010734,908.5869979304815 L1262.2215840097567,917.5798033833771 L1251.1858902953013,925.6930771230969 L1239.1571685970084,932.804911026078 L1226.2224164746058,938.7990386771348 L1212.481787305609,943.5662982229837 L1198.0480653975094,947.006079606169 L1183.045985770716,949.0277401989284 L1167.6113994845205,949.5519725393884 L1151.8902870514798,948.5121077151366 L1136.037624199977,945.8553379499313 L1120.2161059839073,941.5438421347787 L1104.5947369850385,935.5557984100257 L1089.3472970892803,927.8862684539272 L1074.6506940241943,918.5479388670549 L1060.6832155021323,907.5717059606482 L1047.6226954019182,895.0070913583984 L1035.6446099223608,880.9224771009985 L1024.9201210335075,865.4051503947228 L1015.6140858174001,848.561149761065 L1007.8830514104404,830.5149061135204 L1001.8732562165897,811.4086741974828 L997.7186588376866,791.4017518654854 L995.5390167485342,770.6694868060941 L995.4380371160266,749.4020725825638 L997.5016223108532,727.8031381467449 L1001.7962325766646,706.0881373532214 L1008.367387996315,684.4825473852972 L1017.2383313215857,663.2198873939278 L1028.4088724074961,642.5395710179876 L1041.8544339134871,622.6846087731695 L1057.5253166024404,603.8991785409123 L1075.3462009884897,586.4260845311575 L1095.2159002625547,570.5041271065235 L1117.0073773698064,556.3654077141964 L1140.5680368382712,544.2325948492867 L1165.720299477527,534.3161784444935 L1192.2624653988921,526.8117413216501 L1219.9698679743535,521.8972773284388 L1248.5963183738309,519.730586497618 L1277.8758372250863,520.4467779876004 L1307.5246667556123,524.155911675876 L1337.243553531206,530.9408090667116 L1366.7202886338405,540.8550636308694 L1395.6324888551142,553.9212798099288 L1423.6505992562097,570.1295686865666 L1450.441094296535,589.4363267438613 L1475.6698516976498,611.763322213799 L1499.0056703235923,636.997111254134 L1520.1239006598057,664.9888036036016 L1538.710153996997,695.5541944624013 L1554.464054208619,728.474276145756 L1567.1029940853716,763.4961395849925 L1576.3658565895205,800.3342720288103 L1582.0166601460944,838.6722533562152 L1583.848086224897,878.1648492851369 L1581.6848470114874,918.4404954829871 L1575.3868509383037,959.1041621965536 L1564.85212426673,999.7405845608963 L1550.0194477908794,1039.917839264372 L1530.8706690836912,1079.1912437864635 L1507.4326525304473,1117.1075500346594 L1479.7788316940293,1153.2093999357612 L1448.03033132522,1187.0400064356966 L1412.356629559786,1218.148019480868 L1372.9757345166781,1246.0925329430004 L1330.1538536074518,1270.4481851580629 L1284.2045383598893,1290.8103028258074 L1235.4872924174542,1306.8000355058846 L1184.4056355637435,1318.069425892873 L1131.4046220963985,1324.3063594962273 L1076.9678175912727,1325.2393363290012 L1021.613744004481,1320.6420067538013 L965.8918091024864,1310.3374137737944 L910.3777423297628,1294.2018848134417 L855.668565358571,1272.1685174252398 L802.3771316511122,1244.230205396164 L751.1262753345234,1210.4421544155766 L702.5426154758675,1170.9238398030961 L657.2500673782926,1125.860362771375 L615.8631177324374,1075.5031662989747 L578.9799252800185,1020.1700768891293 L547.1753130126584,960.2446442605477 L520.9937217734578,896.1747573187083 L500.9421983891964,828.4705215449533 L487.48349407954083,757.7013901644136 L481.029350811663,684.4925490531232 L481.934054445942,609.5205632546089 L490.4883339077029,533.5083011256776 L506.9136851851882,457.2191604430001 L531.3571976660077,381.4506291956142 L563.8869581620179,307.0272221772868 L604.4881049233265,234.79284278811588 L653.0596000017025,165.60262756496797 L709.4117834980132,100.3143387915269 L773.2647675318233,39.779377996968606 L844.2477212294098,-15.166499857203462 L921.8990906736358,-63.712685272775275 L1005.6677896402969,-105.08333418533721 L1094.9153881158863,-138.5470119637356 L1188.9193161151054,-163.42626017717942 L1286.8770902677084,-179.1069815549414 L1387.9115601060973,-185.0475362233368 L1491.077160049253,-180.7874410021641 L1595.3671418453055,-165.95556333470347 L1699.7217508103804,-140.27770235796788 L1803.037297699535,-103.58345173041971 L1904.176066584837,-55.812242148101404 L2001.9769878191078,2.981533988765591 L2095.2669941586696,72.62440754656996 L2182.872967532012,152.8208120965171 L2263.634173904223,243.15123450909084 L2336.4150743271603,343.07160410731456 L2400.1183917100043,451.91397740118117 L2453.6983052176483,568.8885640177933 L2496.173637623576,693.0871270842174 L2526.6408955225997,823.487778106034 L2544.28701815129,958.9611724186638 L2548.401687766151,1098.27809668803 L2538.389053176572,1240.1184248316454 L2513.7787181946424,1383.0814032591124 L2474.2358485072496,1525.6972106425364 L2419.5702538434925,1666.4397216792945 L2349.7443073328795,1803.7403886664583 L2264.879570641152,1936.0031393387928 L2165.262001828488,2061.620174503664 L2051.3456328781763,2178.9885347139325 L1923.7546154540964,2286.527291730573 L1783.2835466049182,2382.6952080158317 L1630.8960007652124,2466.008696138803 L1467.721210414288,2535.059899934318 L1295.0488550283903,2588.534710694672 L1114.3219363696687,2625.2305247422873 L927.1277375474081,2644.073543569868 L735.1868834970455,2644.1354144707548 L540.3405413710674,2624.64900832675 L344.53582062652583,2585.02313207034 L149.80945411991001,2524.8559763686562 L-41.730136937220095,2443.9471043456615 L-227.92226997766556,2342.3077947013244 L-406.57477496327397,2220.1695624158147 L-575.4859498858132,2077.9906923314034 L-732.4675133430751,1916.4606352494736 L-875.368351547284,1736.502132704743 L-1002.0988404308805,1539.270955195972 L-1110.6555084663014,1326.1531592518488 L-1199.1457926389844,1098.759791153221 L-1265.8126289221746,858.9189892567404 L-1309.0586098007675,608.6654624831541 L-1327.469435066551,350.22734943409677 L-1319.836378426572,86.01049055356316 L-1285.177491576917,-181.41982550127557 L-1222.757269419717,-449.3595508416663 L-1132.1045051383944,-714.9888827330858 L-1013.0280719654525,-975.3974339956476 L-865.6303797172995,-1227.611390968764 L-690.3182685406987,-1468.6224522361008 L-487.81111979015736,-1695.4183139880893 L-259.1459844770386,-1905.0144419473222 L-5.67955320512192,-2094.4868455292717 L270.91318219306413,-2261.005547681238 L568.6436961446083,-2401.868423956719 L885.2182153516404,-2514.5350671452784 L1218.0495790821549,-2596.6603194812988 L1564.2726938674873,-2646.127103369945 L1920.7635654519624,-2661.078173943775 L2284.161852215978,-2639.946412820825 L2650.896844684133,-2581.483282366939 L3017.216735514644,-2484.78506373021 L3379.2210039486345,-2349.3165100360297 L3732.8956984952406,-2174.931558491721 L4074.1513620785913,-1961.8907617907603 L4398.863305420258,-1710.8751201278565 L4702.913897527316,-1422.9960202894376 L4982.236507259116,-1099.8010175758272 L5232.860697502754,-743.2752296002398 L5450.958243946404,-355.8381481054007 L5632.889524230087,59.66428439672438 L5775.249800789241,499.97244240761853"/>
</svg>
