<?xml version="1.0" encoding="utf-8"?>
         <svg xmlns="http://www.w3.org/2000/svg"
              xmlns:xlink="http://www.w3.org/1999/xlink"
              width="500" height="500" style="background: #ffffff">
<circle r="4.503465241764185" cx="74.6436609152288" cy="250.0"/>
<circle r="8.110731637946172" cx="154.1635408852213" cy="250.0"/>
<circle r="20" cx="249.93748437109278" cy="250.0"/>
<circle r="20" cx="250.06251562890725" cy="250.0"/>
<circle r="8.110731637946172" cx="345.8364591147787" cy="250.0"/>
<circle r="4.503465241764186" cx="425.3563390847712" cy="250.0"/>
<circle r="3.7346324746345987" cx="36.634158539634896" cy="300.0"/>
<circle r="3.7346324746345987" cx="36.634158539634896" cy="200.0"/>
<circle r="5.990134353540849" cx="116.65416354088524" cy="300.0"/>
<circle r="5.990134353540849" cx="116.65416354088524" cy="200.0"/>
<circle r="16.928319278684192" cx="203.92598149537383" cy="300.0"/>
<circle r="16.928319278684192" cx="203.92598149537383" cy="200.0"/>
<circle r="16.9283192786842" cx="296.0740185046261" cy="300.0"/>
<circle r="16.9283192786842" cx="296.0740185046261" cy="200.0"/>
<circle r="5.990134353540849" cx="383.3458364591148" cy="300.0"/>
<circle r="5.990134353540849" cx="383.3458364591148" cy="200.0"/>
<circle r="3.7346324746346036" cx="463.36584146036506" cy="300.0"/>
<circle r="3.7346324746346036" cx="463.36584146036506" cy="200.0"/>
<circle r="3.244728449884722" cx="0.7501875468867159" cy="350.0"/>
<circle r="3.244728449884722" cx="0.7501875468867159" cy="150.0"/>
<circle r="4.9150498483899385" cx="82.39559889972492" cy="350.0"/>
<circle r="4.9150498483899385" cx="82.39559889972492" cy="150.0"/>
<circle r="11.834041985238468" cx="173.66841710427607" cy="350.0"/>
<circle r="11.834041985238468" cx="173.66841710427607" cy="150.0"/>
<circle r="11.834041985238468" cx="326.33158289572395" cy="350.0"/>
<circle r="11.834041985238468" cx="326.33158289572395" cy="150.0"/>
<circle r="4.9150498483899385" cx="417.6044011002751" cy="350.0"/>
<circle r="4.9150498483899385" cx="417.6044011002751" cy="150.0"/>
<circle r="3.244728449884722" cx="499.24981245311324" cy="350.0"/>
<circle r="3.244728449884722" cx="499.24981245311324" cy="150.0"/>
<circle r="4.238742632877628" cx="49.63740935233809" cy="400.0"/>
<circle r="4.238742632877628" cx="49.63740935233809" cy="100.0"/>
<circle r="9.434900102464738" cx="144.91122780695173" cy="400.0"/>
<circle r="9.434900102464738" cx="144.91122780695173" cy="100.0"/>
<circle r="9.43490010246473" cx="355.0887721930482" cy="400.0"/>
<circle r="9.43490010246473" cx="355.0887721930482" cy="100.0"/>
<circle r="4.238742632877628" cx="450.3625906476619" cy="400.0"/>
<circle r="4.238742632877628" cx="450.3625906476619" cy="100.0"/>
<circle r="3.7642460968725326" cx="17.879469867466867" cy="450.0"/>
<circle r="3.7642460968725326" cx="17.879469867466867" cy="50.0"/>
<circle r="7.986079369919401" cx="117.02925731432859" cy="450.0"/>
<circle r="7.986079369919401" cx="117.02925731432859" cy="50.0"/>
<circle r="7.986079369919401" cx="382.9707426856714" cy="450.0"/>
<circle r="7.986079369919401" cx="382.9707426856714" cy="50.0"/>
<circle r="3.7642460968725366" cx="482.1205301325331" cy="450.0"/>
<circle r="3.7642460968725366" cx="482.1205301325331" cy="50.0"/>
</svg>
