<?xml version="1.0" encoding="utf-8"?>
<svg xmlns="http://www.w3.org/2000/svg"
     xmlns:xlink="http://www.w3.org/1999/xlink" width="600" height="600" >

    <defs>
    <style type="text/css"><![CDATA[

    circle {
        stroke-width: 2px;
        stroke: #000;
        fill: none;
    }
    .marker { stroke-width: 0; fill: #000;}
    .circle {stroke: #888;}

    path {
        stroke-width: 4px;
        stroke: #000;
        fill: #888;
    }

    ]]></style>
    </defs>
    
<circle cx="344.87511276817423" cy="377.7259753098606" r="175" class="circle"/>
<circle cx="267.2105606654355" cy="383.5461288866835" r="175" class="circle"/>
<circle cx="214.2371251642926" cy="326.45434338138443" r="175" class="circle"/>
<circle cx="225.8448836582633" cy="249.44189773964104" r="175" class="circle"/>
<circle cx="293.2929572462659" cy="210.500734297286" r="175" class="circle"/>
<circle cx="365.7915708265693" cy="238.95434338138435" r="175" class="circle"/>
<circle cx="388.7477896709991" cy="313.3765770037601" r="175" class="circle"/>
<path d="M 344.87511276817423,377.7259753098606 A 175,175,0,0,1,267.2105606654355,383.5461288866835 A 175,175,0,0,1,214.2371251642926,326.45434338138443 A 175,175,0,0,1,225.8448836582633,249.44189773964104 A 175,175,0,0,1,293.2929572462659,210.500734297286 A 175,175,0,0,1,365.7915708265693,238.95434338138435 A 175,175,0,0,1,388.7477896709991,313.3765770037601 A 175,175,0,0,1,344.87511276817423,377.7259753098606"/>
</svg>
